name C:\Users\u0150099\Documents\master_thesis\3dpredictsim\Results\debug\Fal_s1_mtjc2_sc_cspx10_oy2_ATx70_Fpsl10_MTc2_MTPm_k1_d01_MTJm_nl_MG_exp5_table_d01_PF_Natali2010_ls146_FDB2_lTs125_Fpsl10_ig21_wAk2e+04_wa2e+03_wpMnD1e+03.mot
datacolumns 130
datarows 4
range 1.05374928 1.08536175
endheader
time	pelvis_tilt	pelvis_list	pelvis_rotation	pelvis_tx	pelvis_ty	pelvis_tz	hip_flexion_l	hip_adduction_l	hip_rotation_l	hip_flexion_r	hip_adduction_r	hip_rotation_r	knee_angle_l	knee_angle_r	ankle_angle_l	ankle_angle_r	subtalar_angle_l	subtalar_angle_r	mtj_angle_l	mtj_angle_r	mtp_angle_l	mtp_angle_r	lumbar_extension	lumbar_bending	lumbar_rotation	arm_flex_l	arm_add_l	arm_rot_l	arm_flex_r	arm_add_r	arm_rot_r	elbow_flex_l	elbow_flex_r	pro_sup_l	pro_sup_r	glut_med1_l/activation	glut_med2_l/activation	glut_med3_l/activation	glut_min1_l/activation	glut_min2_l/activation	glut_min3_l/activation	semimem_l/activation	semiten_l/activation	bifemlh_l/activation	bifemsh_l/activation	sar_l/activation	add_long_l/activation	add_brev_l/activation	add_mag1_l/activation	add_mag2_l/activation	add_mag3_l/activation	tfl_l/activation	pect_l/activation	grac_l/activation	glut_max1_l/activation	glut_max2_l/activation	glut_max3_l/activation	iliacus_l/activation	psoas_l/activation	quad_fem_l/activation	gem_l/activation	peri_l/activation	rect_fem_l/activation	vas_med_l/activation	vas_int_l/activation	vas_lat_l/activation	med_gas_l/activation	lat_gas_l/activation	soleus_l/activation	tib_post_l/activation	flex_dig_l/activation	flex_hal_l/activation	tib_ant_l/activation	per_brev_l/activation	per_long_l/activation	per_tert_l/activation	ext_dig_l/activation	ext_hal_l/activation	FDB_l/activation	ercspn_l/activation	intobl_l/activation	extobl_l/activation	glut_med1_r/activation	glut_med2_r/activation	glut_med3_r/activation	glut_min1_r/activation	glut_min2_r/activation	glut_min3_r/activation	semimem_r/activation	semiten_r/activation	bifemlh_r/activation	bifemsh_r/activation	sar_r/activation	add_long_r/activation	add_brev_r/activation	add_mag1_r/activation	add_mag2_r/activation	add_mag3_r/activation	tfl_r/activation	pect_r/activation	grac_r/activation	glut_max1_r/activation	glut_max2_r/activation	glut_max3_r/activation	iliacus_r/activation	psoas_r/activation	quad_fem_r/activation	gem_r/activation	peri_r/activation	rect_fem_r/activation	vas_med_r/activation	vas_int_r/activation	vas_lat_r/activation	med_gas_r/activation	lat_gas_r/activation	soleus_r/activation	tib_post_r/activation	flex_dig_r/activation	flex_hal_r/activation	tib_ant_r/activation	per_brev_r/activation	per_long_r/activation	per_tert_r/activation	ext_dig_r/activation	ext_hal_r/activation	FDB_r/activation	ercspn_r/activation	intobl_r/activation	extobl_r/activation	
          1.05374928	         -2.92668380	         -1.77822011	          4.52403834	          1.40148654	          0.91014009	         -0.00589060	        -13.80074986	          1.63722900	          9.24379872	         28.42905191	          2.44492957	         -4.45465760	        -15.14154629	        -10.22182919	          7.28723061	          6.59188139	          2.92647898	          2.27784060	         -1.10018896	         -0.80249628	         17.51890948	         -2.98948235	         -4.13713144	          1.18123290	         -2.33565677	          2.71315829	        -13.84516042	         19.34223376	         -2.09140114	        -13.45104204	         10.38449722	         43.83697707	         19.03158207	         86.51662706	         86.51662706	          0.28686887	          0.05878118	          0.05000003	          0.49145075	          0.18782437	          0.07870796	          0.05000082	          0.05000010	          0.05000007	          0.05000046	          0.07033793	          0.05000011	          0.05000009	          0.05000017	          0.05000053	          0.05000030	          0.56042843	          0.05000077	          0.05000018	          0.05000064	          0.05000035	          0.05000023	          0.35638215	          0.69951966	          0.05000003	          0.05000015	          0.05000005	          0.38547253	          0.13346944	          0.15691145	          0.11927751	          0.35299671	          0.44641455	          0.29790568	          0.47766911	          0.35957712	          0.48683101	          0.05000000	          0.07658472	          0.24685369	          0.05000007	          0.05000003	          0.09099683	          0.74484247	          0.05000002	          0.05000000	          0.05000001	          0.06910428	          0.05000018	          0.05358315	          0.05000011	          0.05000016	          0.05000043	          0.29633293	          0.06910476	          0.33608910	          0.05418879	          0.05000096	          0.13748355	          0.16193495	          0.17014342	          0.16110262	          0.15182131	          0.05000077	          0.05007592	          0.11006426	          0.05876630	          0.09048507	          0.11921216	          0.05000015	          0.05000017	          0.15897725	          0.05000050	          0.05000015	          0.05000008	          0.05000095	          0.05000088	          0.05000069	          0.06132241	          0.05000126	          0.05123261	          0.05015102	          0.05000456	          0.05000038	          0.29115478	          0.05000028	          0.08539075	          0.15600081	          0.59133253	          0.32532630	          0.36320092	          0.06780314	          0.07642564	          0.06679055	
          1.06428677	         -2.92921815	         -1.87456587	          4.85688168	          1.41832960	          0.90917938	         -0.00567759	        -14.35847671	          1.21247874	          9.09139024	         28.05585198	          2.79045587	         -4.40281167	        -15.74972352	        -10.29932701	          6.34691022	          6.12934020	          3.62304798	          2.31663713	         -2.12866528	         -0.38114877	         20.12742695	         -3.71106967	         -3.88220740	          1.32790289	         -2.48233965	          2.17009820	        -13.81717466	         19.22348174	         -2.90552826	        -13.45182038	          9.87979053	         45.66997363	         18.50543038	         86.51662706	         86.51662706	          0.24401400	          0.05000005	          0.05000001	          0.41803371	          0.15976560	          0.06694993	          0.05000147	          0.05000019	          0.05000011	          0.05000031	          0.05983032	          0.09015116	          0.05000419	          0.05000038	          0.05000094	          0.05000130	          0.54350554	          0.05849586	          0.05000022	          0.05000040	          0.05000024	          0.05000023	          0.30314276	          0.64348983	          0.05000001	          0.05000010	          0.05000006	          0.39186241	          0.16095556	          0.17586927	          0.16200047	          0.32280606	          0.41546073	          0.25397703	          0.44538383	          0.38831759	          0.44672127	          0.05000000	          0.06514387	          0.20997659	          0.05000005	          0.05000002	          0.07740301	          0.63357156	          0.05000001	          0.05000002	          0.05000008	          0.05878120	          0.05878119	          0.05000012	          0.05878126	          0.05878124	          0.05003709	          0.26365134	          0.05878135	          0.29799398	          0.05878123	          0.05000021	          0.15374167	          0.16794350	          0.14472666	          0.15806638	          0.15827040	          0.05000011	          0.05000235	          0.09362233	          0.05000048	          0.10637106	          0.14928187	          0.05000063	          0.05000034	          0.39609987	          0.15802953	          0.08133301	          0.05000003	          0.05000007	          0.05000007	          0.05000006	          0.05216177	          0.05000022	          0.05000000	          0.05000143	          0.09103963	          0.05878201	          0.30628912	          0.08755728	          0.10330687	          0.20504561	          0.62561578	          0.36578470	          0.31578805	          0.05767414	          0.06500853	          0.05874680	
          1.07482426	         -2.92949242	         -1.98779036	          5.17193874	          1.43546236	          0.90826115	         -0.00543408	        -14.83601766	          0.75155749	          8.87521609	         27.69362160	          3.10230859	         -4.34430417	        -16.45769817	        -11.08611078	          5.24677587	          5.22078756	          4.39733248	          2.36331023	         -3.25935544	          0.21957495	         22.91720446	         -4.32224366	         -3.60623029	          1.48971739	         -2.61648209	          1.55950692	        -13.78635184	         19.06961804	         -3.76325753	        -13.47191984	          9.56855066	         47.49986661	         18.04946681	         86.51662706	         86.51662706	          0.20756113	          0.05000051	          0.05878021	          0.35558430	          0.13589849	          0.05694855	          0.05000099	          0.05000017	          0.05000029	          0.05000003	          0.05089244	          0.21307217	          0.05878149	          0.05878141	          0.05878135	          0.05878230	          0.56833277	          0.05000080	          0.05000058	          0.05004810	          0.05878040	          0.05878120	          0.25785672	          0.58468337	          0.05878120	          0.05878105	          0.05000047	          0.33714442	          0.15888132	          0.16340868	          0.15518565	          0.27546222	          0.36305697	          0.21603577	          0.37993850	          0.33030774	          0.37998639	          0.05000000	          0.05541213	          0.17860850	          0.05000002	          0.05000001	          0.06583993	          0.53892324	          0.05003376	          0.06439863	          0.05000010	          0.05000001	          0.05000004	          0.12080826	          0.05000004	          0.05000004	          0.05000006	          0.22426486	          0.05000011	          0.25347711	          0.05000002	          0.05000128	          0.13077498	          0.26838024	          0.24308774	          0.17502776	          0.19081389	          0.05000107	          0.06912251	          0.07963632	          0.06051906	          0.14739693	          0.18394470	          0.05000019	          0.06885912	          0.50221201	          0.13442181	          0.06918286	          0.06769863	          0.12950942	          0.13174951	          0.10233672	          0.06050821	          0.06875323	          0.06051220	          0.05000003	          0.07743952	          0.05000074	          0.36458342	          0.07985207	          0.08787404	          0.41010571	          0.65858010	          0.34445495	          0.26861294	          0.05000000	          0.05529701	          0.05000030	
          1.08536175	         -2.92820068	         -2.14618795	          5.47505469	          1.45279842	          0.90745390	         -0.00520332	        -15.20664748	          0.23717836	          8.61019214	         27.26875965	          3.35540281	         -4.17827594	        -17.29113667	        -12.14063046	          3.95806764	          4.24006470	          5.18156253	          2.43802674	         -4.49614118	          0.67311505	         25.89139798	         -4.88920765	         -3.31440592	          1.69977009	         -2.74102991	          0.90185001	        -13.74269812	         18.90434180	         -4.64051198	        -13.51405166	          9.43094547	         49.29920389	         17.63458104	         86.51662706	         86.51662706	          0.17655421	          0.05000006	          0.05000001	          0.30246429	          0.11559687	          0.05000014	          0.05000089	          0.05000008	          0.05000005	          0.05000116	          0.05878201	          0.22494969	          0.05000028	          0.05000022	          0.05000036	          0.05000098	          0.57652337	          0.05878145	          0.05000017	          0.05000041	          0.05000021	          0.05000013	          0.21933593	          0.66777444	          0.05000002	          0.05000010	          0.05000003	          0.28677892	          0.13514629	          0.13899731	          0.13200270	          0.23431134	          0.30882048	          0.18376251	          0.32318007	          0.28096362	          0.32322083	          0.05000002	          0.05000003	          0.15192644	          0.05000003	          0.05000001	          0.05600422	          0.45841429	          0.08667074	          0.05477821	          0.05000007	          0.31456321	          0.29899644	          0.32085666	          0.25712282	          0.17149167	          0.16172042	          0.19076229	          0.13885630	          0.21561057	          0.08124171	          0.05878137	          0.11123875	          0.22828736	          0.20677328	          0.14888074	          0.23220995	          0.05000017	          0.05879677	          0.18418391	          0.20351317	          0.21089406	          0.21747748	          0.05878124	          0.05878115	          0.42718732	          0.11434079	          0.08617856	          0.05758523	          0.11016220	          0.11206766	          0.08704880	          0.05146898	          0.05848229	          0.05147237	          0.05000167	          0.06587108	          0.05878177	          0.42008732	          0.06792313	          0.11535692	          0.40322258	          0.78091593	          0.61495139	          0.57040394	          0.05000006	          0.09408133	          0.05000001	
